<mxfile host="Electron" agent="Mozilla/5.0 (Macintosh; Intel Mac OS X 10_15_7) AppleWebKit/537.36 (KHTML, like Gecko) draw.io/24.7.8 Chrome/128.0.6613.36 Electron/32.0.1 Safari/537.36" version="24.7.8">
  <diagram name="Page-1" id="2vSBRcbhQLThNsj6wSuI">
    <mxGraphModel dx="1434" dy="2023" grid="1" gridSize="10" guides="1" tooltips="1" connect="1" arrows="1" fold="1" page="1" pageScale="1" pageWidth="827" pageHeight="1169" math="0" shadow="0">
      <root>
        <mxCell id="0" />
        <mxCell id="1" parent="0" />
        <mxCell id="gMsMq5aUFBRB3i3Dcqtn-1" value="&lt;b&gt;&lt;span style=&quot;font-size: 14px;&quot;&gt;Classes :&amp;nbsp;&lt;/span&gt;Gestion des commandes de repas en ligne&lt;/b&gt;" style="text;html=1;align=center;verticalAlign=middle;whiteSpace=wrap;rounded=0;fontSize=14;" parent="1" vertex="1">
          <mxGeometry x="516" y="-930" width="380" height="30" as="geometry" />
        </mxCell>
        <mxCell id="gMsMq5aUFBRB3i3Dcqtn-2" value="&lt;i&gt;&lt;b&gt;Utilisateur&lt;/b&gt;&lt;br&gt;{abstract}&lt;/i&gt;" style="swimlane;fontStyle=0;align=center;verticalAlign=top;childLayout=stackLayout;horizontal=1;startSize=40;horizontalStack=0;resizeParent=1;resizeParentMax=0;resizeLast=0;collapsible=0;marginBottom=0;html=1;whiteSpace=wrap;" parent="1" vertex="1">
          <mxGeometry x="800" y="-510" width="140" height="108" as="geometry" />
        </mxCell>
        <mxCell id="gMsMq5aUFBRB3i3Dcqtn-4" value="- nom: String" style="text;html=1;strokeColor=none;fillColor=none;align=left;verticalAlign=middle;spacingLeft=4;spacingRight=4;overflow=hidden;rotatable=0;points=[[0,0.5],[1,0.5]];portConstraint=eastwest;whiteSpace=wrap;" parent="gMsMq5aUFBRB3i3Dcqtn-2" vertex="1">
          <mxGeometry y="40" width="140" height="20" as="geometry" />
        </mxCell>
        <mxCell id="gMsMq5aUFBRB3i3Dcqtn-6" value="- email: Email" style="text;html=1;strokeColor=none;fillColor=none;align=left;verticalAlign=middle;spacingLeft=4;spacingRight=4;overflow=hidden;rotatable=0;points=[[0,0.5],[1,0.5]];portConstraint=eastwest;whiteSpace=wrap;" parent="gMsMq5aUFBRB3i3Dcqtn-2" vertex="1">
          <mxGeometry y="60" width="140" height="20" as="geometry" />
        </mxCell>
        <mxCell id="gMsMq5aUFBRB3i3Dcqtn-7" value="" style="line;strokeWidth=1;fillColor=none;align=left;verticalAlign=middle;spacingTop=-1;spacingLeft=3;spacingRight=3;rotatable=0;labelPosition=right;points=[];portConstraint=eastwest;" parent="gMsMq5aUFBRB3i3Dcqtn-2" vertex="1">
          <mxGeometry y="80" width="140" height="8" as="geometry" />
        </mxCell>
        <mxCell id="gMsMq5aUFBRB3i3Dcqtn-9" value="+ modifierProfil(): void" style="text;html=1;strokeColor=none;fillColor=none;align=left;verticalAlign=middle;spacingLeft=4;spacingRight=4;overflow=hidden;rotatable=0;points=[[0,0.5],[1,0.5]];portConstraint=eastwest;whiteSpace=wrap;" parent="gMsMq5aUFBRB3i3Dcqtn-2" vertex="1">
          <mxGeometry y="88" width="140" height="20" as="geometry" />
        </mxCell>
        <mxCell id="gMsMq5aUFBRB3i3Dcqtn-11" value="&lt;b&gt;Client&lt;/b&gt;" style="swimlane;fontStyle=0;align=center;verticalAlign=top;childLayout=stackLayout;horizontal=1;startSize=30;horizontalStack=0;resizeParent=1;resizeParentMax=0;resizeLast=0;collapsible=0;marginBottom=0;html=1;whiteSpace=wrap;" parent="1" vertex="1">
          <mxGeometry x="510" y="-512" width="180" height="98" as="geometry" />
        </mxCell>
        <mxCell id="gMsMq5aUFBRB3i3Dcqtn-14" value="- adresse: String" style="text;html=1;strokeColor=none;fillColor=none;align=left;verticalAlign=middle;spacingLeft=4;spacingRight=4;overflow=hidden;rotatable=0;points=[[0,0.5],[1,0.5]];portConstraint=eastwest;whiteSpace=wrap;" parent="gMsMq5aUFBRB3i3Dcqtn-11" vertex="1">
          <mxGeometry y="30" width="180" height="20" as="geometry" />
        </mxCell>
        <mxCell id="gMsMq5aUFBRB3i3Dcqtn-15" value="" style="line;strokeWidth=1;fillColor=none;align=left;verticalAlign=middle;spacingTop=-1;spacingLeft=3;spacingRight=3;rotatable=0;labelPosition=right;points=[];portConstraint=eastwest;" parent="gMsMq5aUFBRB3i3Dcqtn-11" vertex="1">
          <mxGeometry y="50" width="180" height="8" as="geometry" />
        </mxCell>
        <mxCell id="gMsMq5aUFBRB3i3Dcqtn-16" value="+ consulterMenu(): String" style="text;html=1;strokeColor=none;fillColor=none;align=left;verticalAlign=middle;spacingLeft=4;spacingRight=4;overflow=hidden;rotatable=0;points=[[0,0.5],[1,0.5]];portConstraint=eastwest;whiteSpace=wrap;" parent="gMsMq5aUFBRB3i3Dcqtn-11" vertex="1">
          <mxGeometry y="58" width="180" height="20" as="geometry" />
        </mxCell>
        <mxCell id="gMsMq5aUFBRB3i3Dcqtn-17" value="+ passerCommande(): String" style="text;html=1;strokeColor=none;fillColor=none;align=left;verticalAlign=middle;spacingLeft=4;spacingRight=4;overflow=hidden;rotatable=0;points=[[0,0.5],[1,0.5]];portConstraint=eastwest;whiteSpace=wrap;" parent="gMsMq5aUFBRB3i3Dcqtn-11" vertex="1">
          <mxGeometry y="78" width="180" height="20" as="geometry" />
        </mxCell>
        <mxCell id="gMsMq5aUFBRB3i3Dcqtn-85" style="edgeStyle=orthogonalEdgeStyle;rounded=0;orthogonalLoop=1;jettySize=auto;html=1;entryX=1;entryY=0.25;entryDx=0;entryDy=0;dashed=1;exitX=0;exitY=0.25;exitDx=0;exitDy=0;" parent="1" source="gMsMq5aUFBRB3i3Dcqtn-18" target="gMsMq5aUFBRB3i3Dcqtn-62" edge="1">
          <mxGeometry relative="1" as="geometry" />
        </mxCell>
        <mxCell id="gMsMq5aUFBRB3i3Dcqtn-18" value="&lt;b&gt;Cuisinier&lt;/b&gt;" style="swimlane;fontStyle=0;align=center;verticalAlign=top;childLayout=stackLayout;horizontal=1;startSize=30;horizontalStack=0;resizeParent=1;resizeParentMax=0;resizeLast=0;collapsible=0;marginBottom=0;html=1;whiteSpace=wrap;" parent="1" vertex="1">
          <mxGeometry x="720" y="-642" width="180" height="58" as="geometry" />
        </mxCell>
        <mxCell id="gMsMq5aUFBRB3i3Dcqtn-20" value="" style="line;strokeWidth=1;fillColor=none;align=left;verticalAlign=middle;spacingTop=-1;spacingLeft=3;spacingRight=3;rotatable=0;labelPosition=right;points=[];portConstraint=eastwest;" parent="gMsMq5aUFBRB3i3Dcqtn-18" vertex="1">
          <mxGeometry y="30" width="180" height="8" as="geometry" />
        </mxCell>
        <mxCell id="gMsMq5aUFBRB3i3Dcqtn-21" value="+ preparerCommande(): String" style="text;html=1;strokeColor=none;fillColor=none;align=left;verticalAlign=middle;spacingLeft=4;spacingRight=4;overflow=hidden;rotatable=0;points=[[0,0.5],[1,0.5]];portConstraint=eastwest;whiteSpace=wrap;" parent="gMsMq5aUFBRB3i3Dcqtn-18" vertex="1">
          <mxGeometry y="38" width="180" height="20" as="geometry" />
        </mxCell>
        <mxCell id="gMsMq5aUFBRB3i3Dcqtn-86" style="edgeStyle=orthogonalEdgeStyle;rounded=0;orthogonalLoop=1;jettySize=auto;html=1;entryX=0.75;entryY=0;entryDx=0;entryDy=0;dashed=1;exitX=0.5;exitY=0;exitDx=0;exitDy=0;" parent="1" source="gMsMq5aUFBRB3i3Dcqtn-23" target="gMsMq5aUFBRB3i3Dcqtn-62" edge="1">
          <mxGeometry relative="1" as="geometry">
            <Array as="points">
              <mxPoint x="1090" y="-642" />
              <mxPoint x="1090" y="-680" />
              <mxPoint x="572" y="-680" />
            </Array>
          </mxGeometry>
        </mxCell>
        <mxCell id="gMsMq5aUFBRB3i3Dcqtn-23" value="&lt;b&gt;Livreur&lt;/b&gt;" style="swimlane;fontStyle=0;align=center;verticalAlign=top;childLayout=stackLayout;horizontal=1;startSize=30;horizontalStack=0;resizeParent=1;resizeParentMax=0;resizeLast=0;collapsible=0;marginBottom=0;html=1;whiteSpace=wrap;" parent="1" vertex="1">
          <mxGeometry x="1016" y="-642" width="174" height="118" as="geometry" />
        </mxCell>
        <mxCell id="gMsMq5aUFBRB3i3Dcqtn-24" value="- position: String" style="text;html=1;strokeColor=none;fillColor=none;align=left;verticalAlign=middle;spacingLeft=4;spacingRight=4;overflow=hidden;rotatable=0;points=[[0,0.5],[1,0.5]];portConstraint=eastwest;whiteSpace=wrap;" parent="gMsMq5aUFBRB3i3Dcqtn-23" vertex="1">
          <mxGeometry y="30" width="174" height="20" as="geometry" />
        </mxCell>
        <mxCell id="gMsMq5aUFBRB3i3Dcqtn-28" value="- statut: String" style="text;html=1;strokeColor=none;fillColor=none;align=left;verticalAlign=middle;spacingLeft=4;spacingRight=4;overflow=hidden;rotatable=0;points=[[0,0.5],[1,0.5]];portConstraint=eastwest;whiteSpace=wrap;" parent="gMsMq5aUFBRB3i3Dcqtn-23" vertex="1">
          <mxGeometry y="50" width="174" height="20" as="geometry" />
        </mxCell>
        <mxCell id="gMsMq5aUFBRB3i3Dcqtn-25" value="" style="line;strokeWidth=1;fillColor=none;align=left;verticalAlign=middle;spacingTop=-1;spacingLeft=3;spacingRight=3;rotatable=0;labelPosition=right;points=[];portConstraint=eastwest;" parent="gMsMq5aUFBRB3i3Dcqtn-23" vertex="1">
          <mxGeometry y="70" width="174" height="8" as="geometry" />
        </mxCell>
        <mxCell id="gMsMq5aUFBRB3i3Dcqtn-26" value="+ modifierPosition(): String" style="text;html=1;strokeColor=none;fillColor=none;align=left;verticalAlign=middle;spacingLeft=4;spacingRight=4;overflow=hidden;rotatable=0;points=[[0,0.5],[1,0.5]];portConstraint=eastwest;whiteSpace=wrap;" parent="gMsMq5aUFBRB3i3Dcqtn-23" vertex="1">
          <mxGeometry y="78" width="174" height="20" as="geometry" />
        </mxCell>
        <mxCell id="gMsMq5aUFBRB3i3Dcqtn-98" value="+ modifierStatut(String): Void" style="text;html=1;strokeColor=none;fillColor=none;align=left;verticalAlign=middle;spacingLeft=4;spacingRight=4;overflow=hidden;rotatable=0;points=[[0,0.5],[1,0.5]];portConstraint=eastwest;whiteSpace=wrap;" parent="gMsMq5aUFBRB3i3Dcqtn-23" vertex="1">
          <mxGeometry y="98" width="174" height="20" as="geometry" />
        </mxCell>
        <mxCell id="gMsMq5aUFBRB3i3Dcqtn-31" style="edgeStyle=orthogonalEdgeStyle;rounded=0;orthogonalLoop=1;jettySize=auto;html=1;endArrow=block;endFill=0;exitX=1;exitY=0.25;exitDx=0;exitDy=0;entryX=0.993;entryY=0.133;entryDx=0;entryDy=0;entryPerimeter=0;" parent="1" source="gMsMq5aUFBRB3i3Dcqtn-18" target="gMsMq5aUFBRB3i3Dcqtn-2" edge="1">
          <mxGeometry relative="1" as="geometry">
            <mxPoint x="462" y="-1024" as="targetPoint" />
          </mxGeometry>
        </mxCell>
        <mxCell id="gMsMq5aUFBRB3i3Dcqtn-34" value="&lt;b&gt;Commande&lt;/b&gt;" style="swimlane;fontStyle=0;align=center;verticalAlign=top;childLayout=stackLayout;horizontal=1;startSize=30;horizontalStack=0;resizeParent=1;resizeParentMax=0;resizeLast=0;collapsible=0;marginBottom=0;html=1;whiteSpace=wrap;" parent="1" vertex="1">
          <mxGeometry x="440" y="-840" width="176" height="118" as="geometry" />
        </mxCell>
        <mxCell id="gMsMq5aUFBRB3i3Dcqtn-35" value="- dateCommande: DateTime" style="text;html=1;strokeColor=none;fillColor=none;align=left;verticalAlign=middle;spacingLeft=4;spacingRight=4;overflow=hidden;rotatable=0;points=[[0,0.5],[1,0.5]];portConstraint=eastwest;whiteSpace=wrap;" parent="gMsMq5aUFBRB3i3Dcqtn-34" vertex="1">
          <mxGeometry y="30" width="176" height="20" as="geometry" />
        </mxCell>
        <mxCell id="gMsMq5aUFBRB3i3Dcqtn-36" value="- statut: String" style="text;html=1;strokeColor=none;fillColor=none;align=left;verticalAlign=middle;spacingLeft=4;spacingRight=4;overflow=hidden;rotatable=0;points=[[0,0.5],[1,0.5]];portConstraint=eastwest;whiteSpace=wrap;" parent="gMsMq5aUFBRB3i3Dcqtn-34" vertex="1">
          <mxGeometry y="50" width="176" height="20" as="geometry" />
        </mxCell>
        <mxCell id="gMsMq5aUFBRB3i3Dcqtn-37" value="" style="line;strokeWidth=1;fillColor=none;align=left;verticalAlign=middle;spacingTop=-1;spacingLeft=3;spacingRight=3;rotatable=0;labelPosition=right;points=[];portConstraint=eastwest;" parent="gMsMq5aUFBRB3i3Dcqtn-34" vertex="1">
          <mxGeometry y="70" width="176" height="8" as="geometry" />
        </mxCell>
        <mxCell id="gMsMq5aUFBRB3i3Dcqtn-38" value="+ ajouterPlat(Plat): Void" style="text;html=1;strokeColor=none;fillColor=none;align=left;verticalAlign=middle;spacingLeft=4;spacingRight=4;overflow=hidden;rotatable=0;points=[[0,0.5],[1,0.5]];portConstraint=eastwest;whiteSpace=wrap;" parent="gMsMq5aUFBRB3i3Dcqtn-34" vertex="1">
          <mxGeometry y="78" width="176" height="20" as="geometry" />
        </mxCell>
        <mxCell id="gMsMq5aUFBRB3i3Dcqtn-39" value="+ calculerTotal(): Float" style="text;html=1;strokeColor=none;fillColor=none;align=left;verticalAlign=middle;spacingLeft=4;spacingRight=4;overflow=hidden;rotatable=0;points=[[0,0.5],[1,0.5]];portConstraint=eastwest;whiteSpace=wrap;" parent="gMsMq5aUFBRB3i3Dcqtn-34" vertex="1">
          <mxGeometry y="98" width="176" height="20" as="geometry" />
        </mxCell>
        <mxCell id="gMsMq5aUFBRB3i3Dcqtn-40" value="&lt;b&gt;Plat&lt;/b&gt;" style="swimlane;fontStyle=0;align=center;verticalAlign=top;childLayout=stackLayout;horizontal=1;startSize=30;horizontalStack=0;resizeParent=1;resizeParentMax=0;resizeLast=0;collapsible=0;marginBottom=0;html=1;whiteSpace=wrap;" parent="1" vertex="1">
          <mxGeometry x="720" y="-840" width="176" height="118" as="geometry" />
        </mxCell>
        <mxCell id="gMsMq5aUFBRB3i3Dcqtn-41" value="- nom: String" style="text;html=1;strokeColor=none;fillColor=none;align=left;verticalAlign=middle;spacingLeft=4;spacingRight=4;overflow=hidden;rotatable=0;points=[[0,0.5],[1,0.5]];portConstraint=eastwest;whiteSpace=wrap;" parent="gMsMq5aUFBRB3i3Dcqtn-40" vertex="1">
          <mxGeometry y="30" width="176" height="20" as="geometry" />
        </mxCell>
        <mxCell id="gMsMq5aUFBRB3i3Dcqtn-42" value="- description: String" style="text;html=1;strokeColor=none;fillColor=none;align=left;verticalAlign=middle;spacingLeft=4;spacingRight=4;overflow=hidden;rotatable=0;points=[[0,0.5],[1,0.5]];portConstraint=eastwest;whiteSpace=wrap;" parent="gMsMq5aUFBRB3i3Dcqtn-40" vertex="1">
          <mxGeometry y="50" width="176" height="20" as="geometry" />
        </mxCell>
        <mxCell id="gMsMq5aUFBRB3i3Dcqtn-46" value="- prix: Float" style="text;html=1;strokeColor=none;fillColor=none;align=left;verticalAlign=middle;spacingLeft=4;spacingRight=4;overflow=hidden;rotatable=0;points=[[0,0.5],[1,0.5]];portConstraint=eastwest;whiteSpace=wrap;" parent="gMsMq5aUFBRB3i3Dcqtn-40" vertex="1">
          <mxGeometry y="70" width="176" height="20" as="geometry" />
        </mxCell>
        <mxCell id="gMsMq5aUFBRB3i3Dcqtn-43" value="" style="line;strokeWidth=1;fillColor=none;align=left;verticalAlign=middle;spacingTop=-1;spacingLeft=3;spacingRight=3;rotatable=0;labelPosition=right;points=[];portConstraint=eastwest;" parent="gMsMq5aUFBRB3i3Dcqtn-40" vertex="1">
          <mxGeometry y="90" width="176" height="8" as="geometry" />
        </mxCell>
        <mxCell id="gMsMq5aUFBRB3i3Dcqtn-44" value="+ preparer(): Void" style="text;html=1;strokeColor=none;fillColor=none;align=left;verticalAlign=middle;spacingLeft=4;spacingRight=4;overflow=hidden;rotatable=0;points=[[0,0.5],[1,0.5]];portConstraint=eastwest;whiteSpace=wrap;" parent="gMsMq5aUFBRB3i3Dcqtn-40" vertex="1">
          <mxGeometry y="98" width="176" height="20" as="geometry" />
        </mxCell>
        <mxCell id="gMsMq5aUFBRB3i3Dcqtn-47" value="&lt;b&gt;Menu&lt;/b&gt;" style="swimlane;fontStyle=0;align=center;verticalAlign=top;childLayout=stackLayout;horizontal=1;startSize=30;horizontalStack=0;resizeParent=1;resizeParentMax=0;resizeLast=0;collapsible=0;marginBottom=0;html=1;whiteSpace=wrap;" parent="1" vertex="1">
          <mxGeometry x="1000" y="-840" width="176" height="78" as="geometry" />
        </mxCell>
        <mxCell id="gMsMq5aUFBRB3i3Dcqtn-48" value="- dateMiseAJour: DateTime" style="text;html=1;strokeColor=none;fillColor=none;align=left;verticalAlign=middle;spacingLeft=4;spacingRight=4;overflow=hidden;rotatable=0;points=[[0,0.5],[1,0.5]];portConstraint=eastwest;whiteSpace=wrap;" parent="gMsMq5aUFBRB3i3Dcqtn-47" vertex="1">
          <mxGeometry y="30" width="176" height="20" as="geometry" />
        </mxCell>
        <mxCell id="gMsMq5aUFBRB3i3Dcqtn-51" value="" style="line;strokeWidth=1;fillColor=none;align=left;verticalAlign=middle;spacingTop=-1;spacingLeft=3;spacingRight=3;rotatable=0;labelPosition=right;points=[];portConstraint=eastwest;" parent="gMsMq5aUFBRB3i3Dcqtn-47" vertex="1">
          <mxGeometry y="50" width="176" height="8" as="geometry" />
        </mxCell>
        <mxCell id="gMsMq5aUFBRB3i3Dcqtn-52" value="+ ajouterPlat(Plat): Void" style="text;html=1;strokeColor=none;fillColor=none;align=left;verticalAlign=middle;spacingLeft=4;spacingRight=4;overflow=hidden;rotatable=0;points=[[0,0.5],[1,0.5]];portConstraint=eastwest;whiteSpace=wrap;" parent="gMsMq5aUFBRB3i3Dcqtn-47" vertex="1">
          <mxGeometry y="58" width="176" height="20" as="geometry" />
        </mxCell>
        <mxCell id="gMsMq5aUFBRB3i3Dcqtn-53" value="&amp;lt;&amp;lt;interface&amp;gt;&amp;gt;&lt;br&gt;&lt;b&gt;INotification&lt;/b&gt;" style="swimlane;fontStyle=0;align=center;verticalAlign=top;childLayout=stackLayout;horizontal=1;startSize=40;horizontalStack=0;resizeParent=1;resizeParentMax=0;resizeLast=0;collapsible=0;marginBottom=0;html=1;whiteSpace=wrap;" parent="1" vertex="1">
          <mxGeometry x="210" y="-635" width="148" height="88" as="geometry" />
        </mxCell>
        <mxCell id="gMsMq5aUFBRB3i3Dcqtn-58" value="" style="line;strokeWidth=1;fillColor=none;align=left;verticalAlign=middle;spacingTop=-1;spacingLeft=3;spacingRight=3;rotatable=0;labelPosition=right;points=[];portConstraint=eastwest;" parent="gMsMq5aUFBRB3i3Dcqtn-53" vertex="1">
          <mxGeometry y="40" width="148" height="8" as="geometry" />
        </mxCell>
        <mxCell id="gMsMq5aUFBRB3i3Dcqtn-60" value="+ notifierCuisinier(): Void" style="text;html=1;strokeColor=none;fillColor=none;align=left;verticalAlign=middle;spacingLeft=4;spacingRight=4;overflow=hidden;rotatable=0;points=[[0,0.5],[1,0.5]];portConstraint=eastwest;whiteSpace=wrap;" parent="gMsMq5aUFBRB3i3Dcqtn-53" vertex="1">
          <mxGeometry y="48" width="148" height="20" as="geometry" />
        </mxCell>
        <mxCell id="gMsMq5aUFBRB3i3Dcqtn-61" value="+ notifierLivreur(): Void" style="text;html=1;strokeColor=none;fillColor=none;align=left;verticalAlign=middle;spacingLeft=4;spacingRight=4;overflow=hidden;rotatable=0;points=[[0,0.5],[1,0.5]];portConstraint=eastwest;whiteSpace=wrap;" parent="gMsMq5aUFBRB3i3Dcqtn-53" vertex="1">
          <mxGeometry y="68" width="148" height="20" as="geometry" />
        </mxCell>
        <mxCell id="gMsMq5aUFBRB3i3Dcqtn-87" style="edgeStyle=orthogonalEdgeStyle;rounded=0;orthogonalLoop=1;jettySize=auto;html=1;entryX=1;entryY=0.25;entryDx=0;entryDy=0;endArrow=block;endFill=0;dashed=1;" parent="1" source="gMsMq5aUFBRB3i3Dcqtn-62" target="gMsMq5aUFBRB3i3Dcqtn-53" edge="1">
          <mxGeometry relative="1" as="geometry" />
        </mxCell>
        <mxCell id="gMsMq5aUFBRB3i3Dcqtn-62" value="&lt;b&gt;NotificationService&lt;/b&gt;" style="swimlane;fontStyle=0;align=center;verticalAlign=top;childLayout=stackLayout;horizontal=1;startSize=30;horizontalStack=0;resizeParent=1;resizeParentMax=0;resizeLast=0;collapsible=0;marginBottom=0;html=1;whiteSpace=wrap;" parent="1" vertex="1">
          <mxGeometry x="440" y="-642" width="176" height="58" as="geometry" />
        </mxCell>
        <mxCell id="gMsMq5aUFBRB3i3Dcqtn-64" value="" style="line;strokeWidth=1;fillColor=none;align=left;verticalAlign=middle;spacingTop=-1;spacingLeft=3;spacingRight=3;rotatable=0;labelPosition=right;points=[];portConstraint=eastwest;" parent="gMsMq5aUFBRB3i3Dcqtn-62" vertex="1">
          <mxGeometry y="30" width="176" height="8" as="geometry" />
        </mxCell>
        <mxCell id="gMsMq5aUFBRB3i3Dcqtn-65" value="+ paramétrerService(): Void" style="text;html=1;strokeColor=none;fillColor=none;align=left;verticalAlign=middle;spacingLeft=4;spacingRight=4;overflow=hidden;rotatable=0;points=[[0,0.5],[1,0.5]];portConstraint=eastwest;whiteSpace=wrap;" parent="gMsMq5aUFBRB3i3Dcqtn-62" vertex="1">
          <mxGeometry y="38" width="176" height="20" as="geometry" />
        </mxCell>
        <mxCell id="gMsMq5aUFBRB3i3Dcqtn-66" value="&amp;lt;&amp;lt;interface&amp;gt;&amp;gt;&lt;br&gt;&lt;b&gt;IPaiement&lt;/b&gt;" style="swimlane;fontStyle=0;align=center;verticalAlign=top;childLayout=stackLayout;horizontal=1;startSize=40;horizontalStack=0;resizeParent=1;resizeParentMax=0;resizeLast=0;collapsible=0;marginBottom=0;html=1;whiteSpace=wrap;" parent="1" vertex="1">
          <mxGeometry x="197" y="-340" width="183" height="88" as="geometry" />
        </mxCell>
        <mxCell id="gMsMq5aUFBRB3i3Dcqtn-67" value="" style="line;strokeWidth=1;fillColor=none;align=left;verticalAlign=middle;spacingTop=-1;spacingLeft=3;spacingRight=3;rotatable=0;labelPosition=right;points=[];portConstraint=eastwest;" parent="gMsMq5aUFBRB3i3Dcqtn-66" vertex="1">
          <mxGeometry y="40" width="183" height="8" as="geometry" />
        </mxCell>
        <mxCell id="gMsMq5aUFBRB3i3Dcqtn-68" value="+ traiterPaiement(): Void" style="text;html=1;strokeColor=none;fillColor=none;align=left;verticalAlign=middle;spacingLeft=4;spacingRight=4;overflow=hidden;rotatable=0;points=[[0,0.5],[1,0.5]];portConstraint=eastwest;whiteSpace=wrap;" parent="gMsMq5aUFBRB3i3Dcqtn-66" vertex="1">
          <mxGeometry y="48" width="183" height="20" as="geometry" />
        </mxCell>
        <mxCell id="gMsMq5aUFBRB3i3Dcqtn-69" value="+ rembourserPaiement(): Void" style="text;html=1;strokeColor=none;fillColor=none;align=left;verticalAlign=middle;spacingLeft=4;spacingRight=4;overflow=hidden;rotatable=0;points=[[0,0.5],[1,0.5]];portConstraint=eastwest;whiteSpace=wrap;" parent="gMsMq5aUFBRB3i3Dcqtn-66" vertex="1">
          <mxGeometry y="68" width="183" height="20" as="geometry" />
        </mxCell>
        <mxCell id="gMsMq5aUFBRB3i3Dcqtn-70" value="&lt;b&gt;PaiementService&lt;/b&gt;" style="swimlane;fontStyle=0;align=center;verticalAlign=top;childLayout=stackLayout;horizontal=1;startSize=30;horizontalStack=0;resizeParent=1;resizeParentMax=0;resizeLast=0;collapsible=0;marginBottom=0;html=1;whiteSpace=wrap;" parent="1" vertex="1">
          <mxGeometry x="200" y="-476" width="176" height="58" as="geometry" />
        </mxCell>
        <mxCell id="gMsMq5aUFBRB3i3Dcqtn-71" value="" style="line;strokeWidth=1;fillColor=none;align=left;verticalAlign=middle;spacingTop=-1;spacingLeft=3;spacingRight=3;rotatable=0;labelPosition=right;points=[];portConstraint=eastwest;" parent="gMsMq5aUFBRB3i3Dcqtn-70" vertex="1">
          <mxGeometry y="30" width="176" height="8" as="geometry" />
        </mxCell>
        <mxCell id="gMsMq5aUFBRB3i3Dcqtn-72" value="+ paramétrerService(): Void" style="text;html=1;strokeColor=none;fillColor=none;align=left;verticalAlign=middle;spacingLeft=4;spacingRight=4;overflow=hidden;rotatable=0;points=[[0,0.5],[1,0.5]];portConstraint=eastwest;whiteSpace=wrap;" parent="gMsMq5aUFBRB3i3Dcqtn-70" vertex="1">
          <mxGeometry y="38" width="176" height="20" as="geometry" />
        </mxCell>
        <mxCell id="gMsMq5aUFBRB3i3Dcqtn-89" style="edgeStyle=orthogonalEdgeStyle;rounded=0;orthogonalLoop=1;jettySize=auto;html=1;dashed=1;exitX=-0.007;exitY=0.177;exitDx=0;exitDy=0;exitPerimeter=0;" parent="1" source="gMsMq5aUFBRB3i3Dcqtn-73" edge="1">
          <mxGeometry relative="1" as="geometry">
            <mxPoint x="460" y="-580" as="targetPoint" />
          </mxGeometry>
        </mxCell>
        <mxCell id="gMsMq5aUFBRB3i3Dcqtn-73" value="&lt;b&gt;CommandeService&lt;/b&gt;" style="swimlane;fontStyle=0;align=center;verticalAlign=top;childLayout=stackLayout;horizontal=1;startSize=30;horizontalStack=0;resizeParent=1;resizeParentMax=0;resizeLast=0;collapsible=0;marginBottom=0;html=1;whiteSpace=wrap;" parent="1" vertex="1">
          <mxGeometry x="516" y="-330" width="254" height="98" as="geometry" />
        </mxCell>
        <mxCell id="gMsMq5aUFBRB3i3Dcqtn-74" value="" style="line;strokeWidth=1;fillColor=none;align=left;verticalAlign=middle;spacingTop=-1;spacingLeft=3;spacingRight=3;rotatable=0;labelPosition=right;points=[];portConstraint=eastwest;" parent="gMsMq5aUFBRB3i3Dcqtn-73" vertex="1">
          <mxGeometry y="30" width="254" height="8" as="geometry" />
        </mxCell>
        <mxCell id="gMsMq5aUFBRB3i3Dcqtn-75" value="+ creerCommande(): Void" style="text;html=1;strokeColor=none;fillColor=none;align=left;verticalAlign=middle;spacingLeft=4;spacingRight=4;overflow=hidden;rotatable=0;points=[[0,0.5],[1,0.5]];portConstraint=eastwest;whiteSpace=wrap;" parent="gMsMq5aUFBRB3i3Dcqtn-73" vertex="1">
          <mxGeometry y="38" width="254" height="20" as="geometry" />
        </mxCell>
        <mxCell id="gMsMq5aUFBRB3i3Dcqtn-90" value="+ mettreAJourCommande(Commande): Void" style="text;html=1;strokeColor=none;fillColor=none;align=left;verticalAlign=middle;spacingLeft=4;spacingRight=4;overflow=hidden;rotatable=0;points=[[0,0.5],[1,0.5]];portConstraint=eastwest;whiteSpace=wrap;" parent="gMsMq5aUFBRB3i3Dcqtn-73" vertex="1">
          <mxGeometry y="58" width="254" height="20" as="geometry" />
        </mxCell>
        <mxCell id="gMsMq5aUFBRB3i3Dcqtn-76" value="+ obtenirCommande(Int): Commande" style="text;html=1;strokeColor=none;fillColor=none;align=left;verticalAlign=middle;spacingLeft=4;spacingRight=4;overflow=hidden;rotatable=0;points=[[0,0.5],[1,0.5]];portConstraint=eastwest;whiteSpace=wrap;" parent="gMsMq5aUFBRB3i3Dcqtn-73" vertex="1">
          <mxGeometry y="78" width="254" height="20" as="geometry" />
        </mxCell>
        <mxCell id="gMsMq5aUFBRB3i3Dcqtn-77" style="edgeStyle=orthogonalEdgeStyle;rounded=0;orthogonalLoop=1;jettySize=auto;html=1;" parent="1" edge="1">
          <mxGeometry relative="1" as="geometry">
            <mxPoint x="600" y="-410" as="sourcePoint" />
            <mxPoint x="600" y="-330" as="targetPoint" />
            <Array as="points">
              <mxPoint x="600" y="-330" />
            </Array>
          </mxGeometry>
        </mxCell>
        <mxCell id="gMsMq5aUFBRB3i3Dcqtn-79" style="edgeStyle=orthogonalEdgeStyle;rounded=0;orthogonalLoop=1;jettySize=auto;html=1;entryX=0.983;entryY=0.136;entryDx=0;entryDy=0;entryPerimeter=0;endArrow=diamond;endFill=1;" parent="1" source="gMsMq5aUFBRB3i3Dcqtn-42" target="gMsMq5aUFBRB3i3Dcqtn-34" edge="1">
          <mxGeometry relative="1" as="geometry" />
        </mxCell>
        <mxCell id="gMsMq5aUFBRB3i3Dcqtn-83" style="edgeStyle=orthogonalEdgeStyle;rounded=0;orthogonalLoop=1;jettySize=auto;html=1;entryX=0;entryY=0.25;entryDx=0;entryDy=0;endArrow=diamond;endFill=0;" parent="1" source="gMsMq5aUFBRB3i3Dcqtn-42" target="gMsMq5aUFBRB3i3Dcqtn-47" edge="1">
          <mxGeometry relative="1" as="geometry" />
        </mxCell>
        <mxCell id="gMsMq5aUFBRB3i3Dcqtn-88" style="edgeStyle=orthogonalEdgeStyle;rounded=0;orthogonalLoop=1;jettySize=auto;html=1;entryX=0.5;entryY=0;entryDx=0;entryDy=0;dashed=1;endArrow=block;endFill=0;" parent="1" source="gMsMq5aUFBRB3i3Dcqtn-70" target="gMsMq5aUFBRB3i3Dcqtn-66" edge="1">
          <mxGeometry relative="1" as="geometry" />
        </mxCell>
        <mxCell id="gMsMq5aUFBRB3i3Dcqtn-91" style="edgeStyle=orthogonalEdgeStyle;rounded=0;orthogonalLoop=1;jettySize=auto;html=1;entryX=1;entryY=0.25;entryDx=0;entryDy=0;dashed=1;" parent="1" source="gMsMq5aUFBRB3i3Dcqtn-75" target="gMsMq5aUFBRB3i3Dcqtn-70" edge="1">
          <mxGeometry relative="1" as="geometry">
            <Array as="points">
              <mxPoint x="420" y="-282" />
              <mxPoint x="420" y="-461" />
            </Array>
          </mxGeometry>
        </mxCell>
        <mxCell id="gMsMq5aUFBRB3i3Dcqtn-92" style="edgeStyle=orthogonalEdgeStyle;rounded=0;orthogonalLoop=1;jettySize=auto;html=1;entryX=-0.005;entryY=0.133;entryDx=0;entryDy=0;entryPerimeter=0;dashed=1;" parent="1" source="gMsMq5aUFBRB3i3Dcqtn-90" target="gMsMq5aUFBRB3i3Dcqtn-34" edge="1">
          <mxGeometry relative="1" as="geometry">
            <Array as="points">
              <mxPoint x="420" y="-262" />
              <mxPoint x="420" y="-220" />
              <mxPoint x="160" y="-220" />
              <mxPoint x="160" y="-824" />
            </Array>
          </mxGeometry>
        </mxCell>
        <mxCell id="gMsMq5aUFBRB3i3Dcqtn-93" value="&lt;b&gt;LivraisonService&lt;/b&gt;" style="swimlane;fontStyle=0;align=center;verticalAlign=top;childLayout=stackLayout;horizontal=1;startSize=30;horizontalStack=0;resizeParent=1;resizeParentMax=0;resizeLast=0;collapsible=0;marginBottom=0;html=1;whiteSpace=wrap;" parent="1" vertex="1">
          <mxGeometry x="922" y="-330" width="254" height="98" as="geometry" />
        </mxCell>
        <mxCell id="gMsMq5aUFBRB3i3Dcqtn-94" value="" style="line;strokeWidth=1;fillColor=none;align=left;verticalAlign=middle;spacingTop=-1;spacingLeft=3;spacingRight=3;rotatable=0;labelPosition=right;points=[];portConstraint=eastwest;" parent="gMsMq5aUFBRB3i3Dcqtn-93" vertex="1">
          <mxGeometry y="30" width="254" height="8" as="geometry" />
        </mxCell>
        <mxCell id="gMsMq5aUFBRB3i3Dcqtn-95" value="+ creerLivraison(): Void" style="text;html=1;strokeColor=none;fillColor=none;align=left;verticalAlign=middle;spacingLeft=4;spacingRight=4;overflow=hidden;rotatable=0;points=[[0,0.5],[1,0.5]];portConstraint=eastwest;whiteSpace=wrap;" parent="gMsMq5aUFBRB3i3Dcqtn-93" vertex="1">
          <mxGeometry y="38" width="254" height="20" as="geometry" />
        </mxCell>
        <mxCell id="gMsMq5aUFBRB3i3Dcqtn-96" value="+ mettreAJourLivraison(Livraison): Void" style="text;html=1;strokeColor=none;fillColor=none;align=left;verticalAlign=middle;spacingLeft=4;spacingRight=4;overflow=hidden;rotatable=0;points=[[0,0.5],[1,0.5]];portConstraint=eastwest;whiteSpace=wrap;" parent="gMsMq5aUFBRB3i3Dcqtn-93" vertex="1">
          <mxGeometry y="58" width="254" height="20" as="geometry" />
        </mxCell>
        <mxCell id="gMsMq5aUFBRB3i3Dcqtn-97" value="+ obtenirLivraison(Int): Commande" style="text;html=1;strokeColor=none;fillColor=none;align=left;verticalAlign=middle;spacingLeft=4;spacingRight=4;overflow=hidden;rotatable=0;points=[[0,0.5],[1,0.5]];portConstraint=eastwest;whiteSpace=wrap;" parent="gMsMq5aUFBRB3i3Dcqtn-93" vertex="1">
          <mxGeometry y="78" width="254" height="20" as="geometry" />
        </mxCell>
        <mxCell id="gMsMq5aUFBRB3i3Dcqtn-100" style="edgeStyle=orthogonalEdgeStyle;rounded=0;orthogonalLoop=1;jettySize=auto;html=1;entryX=0;entryY=0.5;entryDx=0;entryDy=0;dashed=1;" parent="1" source="gMsMq5aUFBRB3i3Dcqtn-75" target="gMsMq5aUFBRB3i3Dcqtn-95" edge="1">
          <mxGeometry relative="1" as="geometry" />
        </mxCell>
        <mxCell id="gMsMq5aUFBRB3i3Dcqtn-101" style="edgeStyle=orthogonalEdgeStyle;rounded=0;orthogonalLoop=1;jettySize=auto;html=1;endArrow=block;endFill=0;" parent="1" edge="1">
          <mxGeometry relative="1" as="geometry">
            <mxPoint x="690" y="-490" as="sourcePoint" />
            <mxPoint x="800" y="-490" as="targetPoint" />
            <Array as="points">
              <mxPoint x="690" y="-490" />
              <mxPoint x="800" y="-490" />
            </Array>
          </mxGeometry>
        </mxCell>
        <mxCell id="gMsMq5aUFBRB3i3Dcqtn-102" style="edgeStyle=orthogonalEdgeStyle;rounded=0;orthogonalLoop=1;jettySize=auto;html=1;entryX=1.002;entryY=0.281;entryDx=0;entryDy=0;entryPerimeter=0;endArrow=block;endFill=0;" parent="1" source="gMsMq5aUFBRB3i3Dcqtn-98" target="gMsMq5aUFBRB3i3Dcqtn-2" edge="1">
          <mxGeometry relative="1" as="geometry">
            <Array as="points">
              <mxPoint x="1103" y="-480" />
              <mxPoint x="940" y="-480" />
            </Array>
          </mxGeometry>
        </mxCell>
        <mxCell id="gMsMq5aUFBRB3i3Dcqtn-103" style="edgeStyle=orthogonalEdgeStyle;rounded=0;orthogonalLoop=1;jettySize=auto;html=1;entryX=0.778;entryY=1.05;entryDx=0;entryDy=0;entryPerimeter=0;dashed=1;" parent="1" source="gMsMq5aUFBRB3i3Dcqtn-93" target="gMsMq5aUFBRB3i3Dcqtn-98" edge="1">
          <mxGeometry relative="1" as="geometry" />
        </mxCell>
      </root>
    </mxGraphModel>
  </diagram>
</mxfile>
